<svg data-v-0dd9719b="" version="1.0" xmlns="http://www.w3.org/2000/svg" xmlns:xlink="http://www.w3.org/1999/xlink" width="100%" height="100%" viewBox="0 0 340.000000 250.000000" preserveAspectRatio="xMidYMid meet" color-interpolation-filters="sRGB" style="margin: auto;"> <rect data-v-0dd9719b="" x="0" y="0" width="100%" height="100%" fill="#fff" fill-opacity="1" class="background"></rect> <rect data-v-0dd9719b="" x="0" y="0" width="100%" height="100%" fill="url(#watermark)" fill-opacity="1" class="watermarklayer"></rect> <g data-v-0dd9719b="" fill="#333" class="icon-text-wrapper icon-svg-group iconsvg" transform="translate(47.974998475027526,96.29874801635742)"><g class="iconsvg-imagesvg" transform="translate(0,2.744081497192383)"><g><rect fill="#333" fill-opacity="0" stroke-width="2" x="0" y="0" width="60" height="51.91434133679429" class="image-rect"></rect> <svg x="0" y="0" width="60" height="51.91434133679429" filtersec="colorsb373080045" class="image-svg-svg primary" style="overflow: visible;"><svg xmlns="http://www.w3.org/2000/svg" viewBox="0.027086203917860985 0 123.29548645019531 106.68000030517578"><path d="M94 61a15.72 15.72 0 0 1 .45 4.47 18.89 18.89 0 0 1-.45 3.15 12.6 12.6 0 0 1-.72 2l-1 2.06A15.43 15.43 0 0 1 82 80.32v26.36h25V50.3c-.17-.09-.35-.09-.53-.18zM96.33 38.69a15.39 15.39 0 0 1-.44-4.47 16.21 16.21 0 0 1 11-14.39V0H82v49.05c.62.18 1.34.18 2 .36zM27.45 72.46a16.1 16.1 0 0 1-15 15.19v18.94h24.83V61.2l-10 7.86a14.88 14.88 0 0 1 .17 3.4zM29.68 47.71a17.75 17.75 0 0 1-.18-3 16.3 16.3 0 0 1 7.78-13V0H12.44v55.57A18.22 18.22 0 0 1 18 56.91z" fill="#36469c"></path><path d="M96.69 52.18l8.93-7.87 1 .54a10.78 10.78 0 0 0 4.82 1.43A11.27 11.27 0 1 0 100.8 34.4a10.47 10.47 0 0 0 .8 4.64l.45 1.08-9.65 8.39-7.68 6.7-1-.53a11.08 11.08 0 0 0-4.82-1.43 12.22 12.22 0 0 0-7.77 2.68l-.27.27-.63.53-.8-.53-13-7.78.18-1.07c0-.18.09-.36.09-.53s.09-.45.09-.63a11.27 11.27 0 1 0-22.51-1.25 11 11 0 0 0 .44 3.66l.28 1.08-8.27 6.52-8.48 6.7-.9-.72a12.46 12.46 0 0 0-5.45-1.87h-.62a11.26 11.26 0 1 0 11.25 11.88 10.3 10.3 0 0 0-.53-3.93l-.36-1.07 14-11.08 2.59-2.06 1 .72a15.13 15.13 0 0 0 2.59 1.34 9.27 9.27 0 0 0 3.13.62 12.24 12.24 0 0 0 4.38-.62A10.08 10.08 0 0 0 53 54l.89-.8 4.92 3 8.66 5.18-.26 1.34A6.85 6.85 0 0 0 67 64a11.21 11.21 0 0 0 2.86 8.13c.17.18.35.27.53.45l.54.53c.27.27.53.45.8.72A11.27 11.27 0 0 0 78.28 76 11.1 11.1 0 0 0 88 70.13l.18-.08c.09-.18.09-.36.18-.54s.18-.45.27-.63c.18-.53.45-1 .62-1.51a17.86 17.86 0 0 0 .36-2.15 10.66 10.66 0 0 0-.8-4.64l-.54-1.08L92 56.2zm15.37-23h.26a5.94 5.94 0 0 1-.26 11.82h-.36a6 6 0 0 1-4.11-2 5.78 5.78 0 0 1-1.52-4.29 6 6 0 0 1 5.99-5.58zM11.28 77.55h-.36a5.95 5.95 0 1 1 .62-11.88 6 6 0 0 1 4.11 2 5.74 5.74 0 0 1 1.52 4.29 5.84 5.84 0 0 1-5.89 5.59zm34.39-26.09h-.35a6 6 0 0 1-4.11-2 5.74 5.74 0 0 1-1.52-4.29 5.95 5.95 0 0 1 10.36-3.67 5.81 5.81 0 0 1 1.52 4.29 5.9 5.9 0 0 1-5.9 5.67zm32.61 19.12h-.35a6 6 0 0 1-4.11-2 5.8 5.8 0 0 1-1.52-4.29 5.92 5.92 0 0 1 6.25-5.63 6 6 0 0 1 4.11 2A5.8 5.8 0 0 1 84.18 65a6 6 0 0 1-5.9 5.58z" fill="#008bcf"></path></svg></svg> <!----></g></g> <g transform="translate(67,0)"><g data-gra="path-name" fill-rule="" class="tp-name iconsvg-namesvg" transform="translate(0,0)"><g transform="scale(1)"><g><path d="M4.22-37.66L4.22-37.66 4.61-37.92Q10.59-37 12.04-33.97L12.04-33.97Q12.96-32.12 11.71-30.76 10.46-29.4 8.57-30.28L8.57-30.28Q8.26-30.45 7.91-30.67L7.91-30.67Q7.25-34.01 4.22-37.66ZM1.19-27.29L1.19-27.29 1.58-27.55Q7.29-26.72 8.57-23.82L8.57-23.82Q9.4-22.06 8.17-20.74L8.17-20.74Q6.94-19.42 5.14-20.3L5.14-20.3Q4.79-20.48 4.48-20.74L4.48-20.74Q4.26-22.41 3.32-24.21 2.37-26.02 1.19-27.29ZM13.49-30.54L13.49-30.54 14.28-30.37Q10.15-16.35 9.23-12.13L9.23-12.13Q8.66-9.4 8.7-7.91L8.7-7.91Q8.7-7.03 9.58-4.55 10.46-2.07 10.37 0.22L10.37 0.22Q10.33 1.89 9.34 2.92 8.35 3.96 6.77 3.96L6.77 3.96Q4.92 3.96 4.48 1.63L4.48 1.63Q5.1-1.98 4.99-4.77 4.88-7.56 4.04-8.09L4.04-8.09Q3.25-8.7 1.76-8.83L1.76-8.83 1.76-9.67 3.74-9.67Q4.09-9.67 4.26-9.71 4.44-9.76 4.64-9.95 4.83-10.15 5.05-10.63L5.05-10.63Q5.98-12.52 13.49-30.54ZM23.95-23.25L23.95-23.25 24.39-23.55Q29.36-22.41 30.28-19.73L30.28-19.73Q30.89-18.06 29.66-17.01L29.66-17.01Q28.39-15.91 26.81-17.01L26.81-17.01Q26.67-17.09 26.54-17.18L26.54-17.18Q26.24-20.04 23.95-23.25ZM22.9-13.32L22.9-13.32 23.25-13.58Q28.78-12.79 30.1-10.02L30.1-10.02Q30.85-8.35 29.75-7.21L29.75-7.21Q28.56-5.93 26.81-6.86L26.81-6.86Q26.63-6.94 26.46-7.08L26.46-7.08Q25.8-10.06 22.9-13.32ZM19.38-5.58L19.38-5.58 32.78-5.58Q33.35-8.88 33.66-14.28L33.66-14.28 20.74-14.28Q20.21-10.85 19.38-5.58ZM34.01-24.04L34.01-24.04 22.06-24.04Q21.93-23.03 20.92-15.56L20.92-15.56 33.75-15.56Q33.97-22.24 34.01-24.04ZM37.66-5.63L37.66-5.63 39.95-9.18Q42.67-6.68 44.21-5.05L44.21-5.05Q43.99-4.31 43.02-4.31L43.02-4.31 37.49-4.31Q36.74 0.18 35.2 1.71L35.2 1.71Q33.09 3.82 29.27 3.82L29.27 3.82Q29.27 1.36 28.39 0.48L28.39 0.48Q27.38-0.7 24.26-1.27L24.26-1.27 24.26-1.89Q28.56-1.58 29.93-1.58L29.93-1.58Q31.2-1.58 31.68-2.18 32.17-2.77 32.52-4.31L32.52-4.31 19.2-4.31Q18.98-3.08 18.63-0.97L18.63-0.97Q16.88 0 13.71-0.7L13.71-0.7Q15.12-7.95 16.08-14.28L16.08-14.28 12.39-14.28 12-15.56 16.26-15.56Q17.23-22.72 17.45-24.48L17.45-24.48Q15.38-22.41 12.92-20.7L12.92-20.7 12.39-21.09Q17.31-27.86 19.6-38.23L19.6-38.23 26.37-35.99Q26.06-35.02 24.57-35.16L24.57-35.16Q23.73-33.27 22.5-31.16L22.5-31.16 35.9-31.16 38.63-34.8Q41.62-32.3 43.37-30.59L43.37-30.59Q43.24-29.88 42.14-29.88L42.14-29.88 21.75-29.88Q21.23-29.05 19.56-26.85L19.56-26.85 23.03-25.36 33.57-25.36 36.12-27.99 40.65-24.08Q40.08-23.42 38.76-23.25L38.76-23.25Q38.72-18.98 38.54-15.56L38.54-15.56 40.61-18.81Q43.02-16.57 44.38-14.99L44.38-14.99Q44.25-14.28 43.2-14.28L43.2-14.28 38.41-14.28Q38.14-8.66 37.66-5.63ZM78.09-7.56L78.09-7.56 69.7-7.56 69.7 1.58Q69.65 1.71 69.19 1.96 68.73 2.2 67.7 2.44 66.67 2.68 65.48 2.68L65.48 2.68 64.56 2.68 64.56-7.56 56.47-7.56 56.12-8.88 64.56-8.88 64.56-14.33 56.87-14.33 56.51-15.56 68.55-15.56Q69.83-19.38 70.58-23.38L70.58-23.38 76.64-21.71Q76.33-20.79 74.93-20.83L74.93-20.83Q72.25-17.71 69.87-15.56L69.87-15.56 72.77-15.56 74.93-18.19Q77.43-16.39 79.01-15.03L79.01-15.03Q78.84-14.33 77.78-14.33L77.78-14.33 69.7-14.33 69.7-8.88 72.47-8.88 74.84-11.87Q77.61-9.76 79.32-8.26L79.32-8.26Q79.15-7.56 78.09-7.56ZM58.8-23.03L58.8-23.03 59.24-23.25Q64.38-22.1 65.3-19.34L65.3-19.34Q65.87-17.62 64.6-16.52L64.6-16.52Q63.24-15.34 61.52-16.44L61.52-16.44Q61.26-16.57 61.04-16.79L61.04-16.79Q61-19.91 58.8-23.03ZM87.36-30.54L87.36-30.54 69.96-30.54 69.96-25.18 79.85-25.18 82.27-27.95 87.41-23.95Q86.75-23.2 85.56-23.03L85.56-23.03 85.56-1.98Q85.56 0.92 84.22 2.31 82.88 3.69 78.62 4.04L78.62 4.04Q78.4 1.36 77.52 0.44L77.52 0.44Q76.16-0.92 73.43-1.32L73.43-1.32 73.43-1.93Q78.09-1.58 79.28-1.58L79.28-1.58Q80.29-1.58 80.29-2.5L80.29-2.5 80.29-23.91 54.8-23.91 54.8 2.11Q54.8 2.64 53.37 3.32 51.94 4 50.41 4L50.41 4 49.53 4 49.53-27.51 55.2-25.18 64.6-25.18 64.6-30.54 46.8-30.54 46.45-31.82 64.6-31.82 64.6-38.1 71.63-37.53Q71.5-36.47 69.96-36.25L69.96-36.25 69.96-31.82 79.85-31.82 82.92-35.73Q86.44-33.13 88.64-31.29L88.64-31.29Q88.42-30.54 87.36-30.54ZM104.46-11.6L104.46-1.1 120.81-1.1 120.81-11.6 104.46-11.6ZM104.81-12.92L120.37-12.92 122.96-15.78 128.32-11.65Q127.66-10.9 126.43-10.68L126.43-10.68 126.43 2.24Q126.39 2.42 125.64 2.7 124.89 2.99 123.77 3.25 122.65 3.52 121.77 3.52L121.77 3.52 120.81 3.52 120.81 0.22 104.46 0.22 104.46 2.24Q104.46 2.5 103.78 2.9 103.1 3.3 101.93 3.63 100.77 3.96 99.71 3.96L99.71 3.96 98.92 3.96 98.92-15.25 104.81-12.92ZM102.04-20.83L114.96-20.83 117.95-24.7Q121.29-22.1 123.31-20.26L123.31-20.26Q123.09-19.51 122.04-19.51L122.04-19.51 102.44-19.51 102.04-20.83ZM109.12-38.41L109.12-38.41 117.03-36.43Q116.76-35.64 114.83-35.46L114.83-35.46Q119.75-28.65 133.86-24.83L133.86-24.83 133.81-24.13Q132.19-23.69 131.09-22.28 129.99-20.87 129.68-19.25L129.68-19.25Q117.95-25.05 114.13-34.94L114.13-34.94Q110.92-29.79 104.66-24.94 98.39-20.08 91.58-17.49L91.58-17.49 91.32-18.06Q97.21-21.67 102.46-27.64 107.71-33.62 109.12-38.41ZM146.56-13.67L146.56-13.67 153.24-9.8Q152.75-8.96 151.26-9.27L151.26-9.27Q145.59-1.93 136.54 1.89L136.54 1.89 136.14 1.45Q139-1.23 141.83-5.3 144.67-9.36 146.56-13.67ZM164.75-12.83L164.75-12.83 165.15-13.14Q173.85-10.72 176.75-5.93L176.75-5.93Q178.46-3.08 177.36-0.97L177.36-0.97Q176.48 0.75 174.55 0.35L174.55 0.35Q173.76 0.22 172.97-0.31L172.97-0.31Q171.04-6.02 164.75-12.83ZM153.19-30.1L169.01-30.1 172.31-34.32Q176.04-31.51 178.24-29.58L178.24-29.58Q178.11-28.83 176.97-28.83L176.97-28.83 152.62-28.83Q147.52-17.97 147.3-17.58L147.3-17.58 155.87-17.58 155.87-25.62 162.82-24.96Q162.69-24.08 161.37-23.91L161.37-23.91 161.37-17.58 167.08-17.58 170.24-21.62Q173.8-18.94 175.96-17.01L175.96-17.01Q175.78-16.3 174.64-16.3L174.64-16.3 161.37-16.3 161.37-2.24Q161.37 0.75 160.03 2.15 158.69 3.56 154.38 3.91L154.38 3.91Q154.16 1.19 153.33 0.31L153.33 0.31Q152.27-0.97 149.5-1.45L149.5-1.45 149.5-2.02Q153.98-1.76 154.95-1.76L154.95-1.76Q155.87-1.76 155.87-2.46L155.87-2.46 155.87-16.3 146.95-16.3 145.28-14.59 140.19-17.84Q141.02-18.5 141.94-18.94L141.94-18.94Q143.75-22.1 146.78-28.83L146.78-28.83 137.15-28.83 136.8-30.1 147.35-30.1Q149.72-35.46 150.64-38.41L150.64-38.41 157.59-36.3Q157.15-35.29 155.61-35.51L155.61-35.51Q154.51-32.92 153.19-30.1L153.19-30.1Z" transform="translate(-1.190000057220459, 38.40999984741211)"></path></g> <!----> <!----> <!----> <!----> <!----> <!----> <!----></g></g> <g data-gra="path-slogan" fill-rule="" class="tp-slogan iconsvg-slogansvg" fill="#333" transform="translate(38.93000030517578,48.45000076293945)"><!----> <!----> <g transform="scale(1, 1)"><g transform="scale(1)"><path d="M2.06-5.06L6.56-5.06L6.56-8.58L7.73-8.58L7.73 0L6.56 0L6.56-3.98L2.06-3.98L2.06 0L0.89 0L0.89-8.58L2.06-8.58L2.06-5.06ZM15.19 0L14.34-2.48L10.88-2.48L9.98 0L8.81 0L12.05-8.58L13.36-8.58L16.45 0L15.19 0ZM12.61-7.31L11.25-3.52L13.92-3.52L12.66-7.31L12.61-7.31ZM17.67-8.58L18.84-8.58L18.84 0L17.67 0L17.67-8.58ZM22.22-8.58L26.53-1.64L26.53-8.58L27.66-8.58L27.66 0L26.34 0L21.98-6.94L21.94-6.94L21.94 0L20.81 0L20.81-8.58L22.22-8.58ZM35.11 0L34.27-2.48L30.80-2.48L29.91 0L28.73 0L31.97-8.58L33.28-8.58L36.38 0L35.11 0ZM32.53-7.31L31.17-3.52L33.84-3.52L32.58-7.31L32.53-7.31ZM38.81-8.58L43.13-1.64L43.13-8.58L44.25-8.58L44.25 0L42.94 0L38.58-6.94L38.53-6.94L38.53 0L37.41 0L37.41-8.58L38.81-8.58ZM50.53-5.06L55.03-5.06L55.03-8.58L56.20-8.58L56.20 0L55.03 0L55.03-3.98L50.53-3.98L50.53 0L49.36 0L49.36-8.58L50.53-8.58L50.53-5.06ZM59.30-1.03L64.45-1.03L64.45 0L58.13 0L58.13-8.58L64.36-8.58L64.36-7.59L59.30-7.59L59.30-4.92L63.98-4.92L63.98-3.89L59.30-3.89L59.30-1.03ZM69.47 0L66 0L66-8.58L69.52-8.58Q72.98-8.39 73.13-4.41L73.13-4.41Q72.94-0.09 69.47 0L69.47 0ZM69.33-7.64L67.17-7.64L67.17-0.98L69.42-0.98Q71.86-1.13 71.95-4.31L71.95-4.31Q71.91-7.55 69.33-7.64L69.33-7.64ZM81.38-4.27L81.38-4.27Q81.19-7.64 78.38-7.83L78.38-7.83Q75.52-7.69 75.38-4.27L75.38-4.27Q75.52-0.94 78.38-0.80L78.38-0.80Q81.19-0.98 81.38-4.27ZM82.55-4.27L82.55-4.27Q82.27 0 78.38 0.14L78.38 0.14Q74.44 0 74.16-4.27L74.16-4.27Q74.39-8.72 78.38-8.81L78.38-8.81Q82.27-8.67 82.55-4.27ZM85.31-8.58L89.63-1.64L89.63-8.58L90.75-8.58L90.75 0L89.44 0L85.08-6.94L85.03-6.94L85.03 0L83.91 0L83.91-8.58L85.31-8.58ZM98.95-3.61L96.33-3.61L96.33-4.59L100.08-4.59L100.08 0L99.33 0L99.05-1.08Q98.06 0.09 96.23 0.14L96.23 0.14Q94.50 0.14 93.56-0.75L93.56-0.75Q92.16-2.06 92.20-4.36L92.20-4.36Q92.53-8.63 96.28-8.81L96.28-8.81Q99.47-8.63 99.94-6L99.94-6L98.81-6Q98.34-7.78 96.23-7.83L96.23-7.83Q93.56-7.64 93.42-4.31L93.42-4.31Q93.42-0.75 96.28-0.75L96.28-0.75Q97.31-0.75 98.06-1.31L98.06-1.31Q99-2.06 98.95-3.61L98.95-3.61Z" transform="translate(-0.890625, 8.8125)"></path></g></g></g></g></g><defs v-gra="od"></defs></svg>